<?xml version="1.0" encoding="utf-8"?>
<?xml-stylesheet type="text/xsl" href="rss1.xsl"?>
<rss version="2.0" xmlns:atom="http://www.w3.org/2005/Atom" xmlns:content="http://purl.org/rss/1.0/modules/content/" xmlns:dc="http://purl.org/dc/elements/1.1/" xmlns:media="http://search.yahoo.com/mrss/">
<channel>
 <title>Getty</title>
 <link>http://www.gettyimg.com/</link>
 <atom:link href="http://www.gettyimg.com/" rel="self" type="application/rss+xml" />

 
                <item>
                <title><![CDATA[【HD Live Performances】WEB-RiP - Jungkook of BTS - BBC Radio 1 Live Lounge - 20/07/2023 1080p Premium Quality]]></title>
                <link><![CDATA[https://sharemania.us/threads/jungkook-of-bts-bbc-radio-1-live-lounge-20-07-2023-1080p-premium-quality.224984/]]></link>
                <description><![CDATA[<article>
<blockquote class="messageText SelectQuoteContainer ugc baseHtml">
<img src="https://i.imgur.com/U8MdUNr.jpg" class="bbCodeImage LbImage" alt="[​IMG]" data-url="https://i.imgur.com/U8MdUNr.jpg" style=""><br>
<b><span style="text-decoration: underline">Released On</span>:</b> 20 July 2023<br>
<b><span style="text-decoration: underline">Source</span>:</b> YouTube (1080p Premium)<br>
<br>
<b><span style="text-decoration: underline">Seven - Jungkook<br>
Description</span></b>: Jung Kook from BTS joins us in the BBC Radio 1 Live Lounge for the first time as a solo artist to perform his single 'Seven'.<br>
<div class="ToggleTriggerAnchor bbCodeSpoilerContainer">
<button type="button" class="button bbCodeSpoilerButton ToggleTrigger Tooltip JsOnly" data-target="> .SpoilerTarget"><span>Spoiler: <span class="SpoilerTitle">Thumbnails</span></span></button>
<div class="SpoilerTarget bbCodeSpoilerText"><img src="https://i.imgur.com/QwjucXI.jpg" class="bbCodeImage LbImage" alt="[​IMG]" data-url="https://i.imgur.com/QwjucXI.jpg" style=""></div>
</div><br>
<div class="ToggleTriggerAnchor bbCodeSpoilerContainer">
<button type="button" class="button bbCodeSpoilerButton ToggleTrigger Tooltip JsOnly" data-target="> .SpoilerTarget"><span>Spoiler: <span class="SpoilerTitle">MediaInfo</span></span></button>
<div class="SpoilerTarget bbCodeSpoilerText">General<br>
Format : MPEG-4<br>
Format profile : Base Media<br>
Codec ID : isom (isom/iso2/mp41)<br>
File size : 87.7 MiB<br>
Duration : 3 min 12 s<br>
Overall bit rate : 3 825 kb/s<br>
Frame rate : 25.000 FPS<br>
Writing application : Lavf60.10.100<br>
<br>
Video<br>
ID : 1<br>
Format : vp09<br>
Codec ID : vp09<br>
Duration : 3 min 12 s<br>
Bit rate : 3 693 kb/s<br>
Width : 1 920 pixels<br>
Height : 1 080 pixels<br>
Display aspect ratio : 16:9<br>
Frame rate mode : Constant<br>
Frame rate : 25.000 FPS<br>
Color space : YUV<br>
Bits/(Pixel*Frame) : 0.071<br>
Stream size : 84.7 MiB (97%)<br>
Title : ISO Media file produced by Google Inc. Created on: 07/21/2023.<br>
Color range : Limited<br>
Color primaries : BT.709<br>
Transfer characteristics : BT.709<br>
Matrix coefficients : BT.709<br>
<br>
Audio<br>
ID : 2<br>
Format : AAC LC<br>
Format/Info : Advanced Audio Codec Low Complexity<br>
Codec ID : mp4a-40-2<br>
Duration : 3 min 12 s<br>
Bit rate mode : Constant<br>
Bit rate : 128 kb/s<br>
Channel(s) : 2 channels<br>
Channel layout : L R<br>
Sampling rate : 44.1 kHz<br>
Frame rate : 43.066 FPS (1024 SPF)<br>
Compression mode : Lossy<br>
Stream size : 2.94 MiB (3%)<br>
Title : ISO Media file produced by Google Inc.<br>
Language : English<br>
Default : Yes<br>
Alternate group : 1</div>
</div><br>
<div class="bbCodeBlock bbCodeVfcHH HiddenContent">
<div class="attribution type">Hidden Content:</div>
<blockquote>You must either reply or click 'Like' to see the hidden information contained here.</blockquote>
</div><br>
<br>
<b><span style="text-decoration: underline">Let There Be Love - Original by Oasis<br>
Description</span></b>: Jung Kook performs a cover of the Oasis classic 'Let There Be Love' in the BBC Radio 1 Live Lounge<br>
<div class="ToggleTriggerAnchor bbCodeSpoilerContainer">
<button type="button" class="button bbCodeSpoilerButton ToggleTrigger Tooltip JsOnly" data-target="> .SpoilerTarget"><span>Spoiler: <span class="SpoilerTitle">Thumbnails</span></span></button>
<div class="SpoilerTarget bbCodeSpoilerText"><img src="https://i.imgur.com/Pym9uDa.jpg" class="bbCodeImage LbImage" alt="[​IMG]" data-url="https://i.imgur.com/Pym9uDa.jpg" style=""></div>
</div>
<div class="ToggleTriggerAnchor bbCodeSpoilerContainer">
<button type="button" class="button bbCodeSpoilerButton ToggleTrigger Tooltip JsOnly" data-target="> .SpoilerTarget"><span>Spoiler: <span class="SpoilerTitle">MediaInfo</span></span></button>
<div class="SpoilerTarget bbCodeSpoilerText">General<br>
Format : MPEG-4<br>
Format profile : Base Media<br>
Codec ID : isom (isom/iso2/mp41)<br>
File size : 63.9 MiB<br>
Duration : 3 min 5 s<br>
Overall bit rate : 2 890 kb/s<br>
Frame rate : 25.000 FPS<br>
Writing application : Lavf60.10.100<br>
<br>
Video<br>
ID : 1<br>
Format : vp09<br>
Codec ID : vp09<br>
Duration : 3 min 5 s<br>
Bit rate : 2 758 kb/s<br>
Width : 1 920 pixels<br>
Height : 1 080 pixels<br>
Display aspect ratio : 16:9<br>
Frame rate mode : Constant<br>
Frame rate : 25.000 FPS<br>
Color space : YUV<br>
Bits/(Pixel*Frame) : 0.053<br>
Stream size : 60.9 MiB (95%)<br>
Title : ISO Media file produced by Google Inc. Created on: 07/21/2023.<br>
Color range : Limited<br>
Color primaries : BT.709<br>
Transfer characteristics : BT.709<br>
Matrix coefficients : BT.709<br>
<br>
Audio<br>
ID : 2<br>
Format : AAC LC<br>
Format/Info : Advanced Audio Codec Low Complexity<br>
Codec ID : mp4a-40-2<br>
Duration : 3 min 5 s<br>
Bit rate mode : Constant<br>
Bit rate : 128 kb/s<br>
Channel(s) : 2 channels<br>
Channel layout : L R<br>
Sampling rate : 44.1 kHz<br>
Frame rate : 43.066 FPS (1024 SPF)<br>
Compression mode : Lossy<br>
Stream size : 2.83 MiB (4%)<br>
Title : ISO Media file produced by Google Inc.<br>
Language : English<br>
Default : Yes<br>
Alternate group : 1</div>
</div>
<div class="bbCodeBlock bbCodeVfcHH HiddenContent">
<div class="attribution type">Hidden Content:</div>
<blockquote>You must either reply or click 'Like' to see the hidden information contained here.</blockquote>
</div>
<div class="messageTextEndMarker">&nbsp;</div>
</blockquote>
</article>]]></description>
                <author><![CDATA[charlescanlom]]></author>
                </item>

                
                <item>
                <title><![CDATA[【Unreleased/Unofficial (lossy)】MP3 - LEAK| Kim Petras - Dashboard | MP3 64kbps | 48.0kHZ]]></title>
                <link><![CDATA[https://sharemania.us/threads/leak-kim-petras-dashboard-mp3-64kbps-48-0khz.224977/]]></link>
                <description><![CDATA[<article>
<blockquote class="messageText SelectQuoteContainer ugc baseHtml">
<div style="text-align: center"><span style="font-size: 12px">Pop Hell Exclusive</span><br>
<div class="bbCodeBlock bbCodeVfcHH HiddenContent">
<div class="attribution type">Hidden Content:</div>
<blockquote>You must either reply or click 'Like' to see the hidden information contained here.</blockquote>
</div></div>
<div class="messageTextEndMarker">&nbsp;</div>
</blockquote>
</article>]]></description>
                <author><![CDATA[sunfloweronly]]></author>
                </item>

                </channel></rss>